<mxfile host="app.diagrams.net" modified="2023-08-15T19:03:46.416Z" agent="Mozilla/5.0 (Windows NT 10.0; Win64; x64; rv:109.0) Gecko/20100101 Firefox/116.0" version="21.6.6" etag="VFOvGicM7AyJL6HgFFAa" type="github">
  <diagram name="Page-1" id="eoXUh2BZkERyDN2w-U0W">
    <mxGraphModel>
      <root>
        <mxCell id="0" />
        <mxCell id="1" parent="0" />
      </root>
    </mxGraphModel>
  </diagram>
</mxfile>
